# xmcd CD database file
#
# Track frame offsets:
#	150
#	18561
#	32586
#	50173
#	61654
#	76201
#	96751
#	111440
#	142903
#	156197
#	168523
#	180637
#	200980
#	223006
#
# Disc length: 3226 seconds
#
# Revision: 0
# Processed by: cddbd v1.5.2PL0 Copyright (c) Steve Scherf et al.
# Submitted via: CDex 1.51
#
DISCID=c40c980e
DTITLE=Div - Jazzascona 2010
DYEAR=2010
DGENRE=Jazz
TTITLE0=Morelenbaum,Paula and SWR Big Band - Mas Que Nada
TTITLE1=Russell,Catherine - Inside This Heart Of Mine
TTITLE2=Ray Gelato´s Giants - A Pizza You
TTITLE3=Powell,Shannon - You Are My Sunshine
TTITLE4=Felber,Dani Big Band - More Than Just Friends
TTITLE5=Parrott,Nicki - Taking A Chance Of Love
TTITLE6=Skipper-Just-Frost - Hey Mr. Cabdriver
TTITLE7=Allred,Bill and Vaché,Warren - Davenport Blues
TTITLE8=Troiano,Attilio Big Band - Attilio
TTITLE9=Pasadena Roof Orchestra - Nobody´s Sweetheart
TTITLE10=Swiss Yerba Buena Creole Rice Jazz Band - Jungle Nights In Harlem
TTITLE11=Colombo,Roberto - Fly,Charlie,Fly
TTITLE12=Ilett,Dany Jr. - Calling The Children Home
TTITLE13=Franco,Larry - Straighten Up And Fly Right
EXTD=YEAR: 2010
EXTT0=
EXTT1=
EXTT2=
EXTT3=
EXTT4=
EXTT5=
EXTT6=
EXTT7=
EXTT8=
EXTT9=
EXTT10=
EXTT11=
EXTT12=
EXTT13=
PLAYORDER=
